<svg width="98" height="18" viewBox="0 0 98 18" fill="none" xmlns="http://www.w3.org/2000/svg">
<g clip-path="url(#clip0_2159_3181)">
<path d="M17.953 6.51759C17.8953 6.33953 17.7865 6.18233 17.6402 6.06553C17.494 5.94873 17.3166 5.87746 17.1302 5.86058L11.9341 5.38884L9.88062 0.581143C9.72899 0.227922 9.38403 0 9.00005 0C8.61607 0 8.27097 0.227922 8.12032 0.581143L6.06681 5.38884L0.869917 5.86058C0.488922 5.89573 0.166323 6.15379 0.0471408 6.51759C-0.0109336 6.69581 -0.015451 6.88715 0.0341482 7.06791C0.0837473 7.24867 0.185284 7.41091 0.326181 7.53454L4.25401 10.9786L3.09591 16.0794C3.01118 16.4545 3.15673 16.8423 3.46794 17.0673C3.63094 17.1858 3.82736 17.2497 4.02894 17.2495C4.20172 17.2495 4.37127 17.2026 4.51948 17.1138L9.00005 14.4347L13.4798 17.1138C13.6405 17.21 13.8259 17.2568 14.013 17.2485C14.2001 17.2402 14.3806 17.1772 14.5322 17.0673C14.8434 16.8423 14.9889 16.4545 14.9042 16.0794L13.7461 10.9786L17.6739 7.53457C17.8148 7.41096 17.9164 7.24872 17.966 7.06795C18.0156 6.88719 18.011 6.69581 17.953 6.51759Z" fill="#EBCD32"/>
<path d="M37.953 6.51759C37.8953 6.33953 37.7865 6.18233 37.6402 6.06553C37.494 5.94873 37.3166 5.87746 37.1302 5.86058L31.9341 5.38884L29.8806 0.581143C29.729 0.227922 29.384 0 29 0C28.6161 0 28.271 0.227922 28.1203 0.581143L26.0668 5.38884L20.8699 5.86058C20.4889 5.89573 20.1663 6.15379 20.0471 6.51759C19.9891 6.69581 19.9845 6.88715 20.0341 7.06791C20.0837 7.24867 20.1853 7.41091 20.3262 7.53454L24.254 10.9786L23.0959 16.0794C23.0112 16.4545 23.1567 16.8423 23.4679 17.0673C23.6309 17.1858 23.8274 17.2497 24.0289 17.2495C24.2017 17.2495 24.3713 17.2026 24.5195 17.1138L29 14.4347L33.4798 17.1138C33.6405 17.21 33.8259 17.2568 34.013 17.2485C34.2001 17.2402 34.3806 17.1772 34.5322 17.0673C34.8434 16.8423 34.9889 16.4545 34.9042 16.0794L33.7461 10.9786L37.6739 7.53457C37.8148 7.41096 37.9164 7.24872 37.966 7.06795C38.0156 6.88719 38.011 6.69581 37.953 6.51759Z" fill="#EBCD32"/>
<path d="M57.953 6.51759C57.8953 6.33953 57.7865 6.18233 57.6402 6.06553C57.494 5.94873 57.3166 5.87746 57.1302 5.86058L51.9341 5.38884L49.8806 0.581143C49.729 0.227922 49.384 0 49 0C48.6161 0 48.271 0.227922 48.1203 0.581143L46.0668 5.38884L40.8699 5.86058C40.4889 5.89573 40.1663 6.15379 40.0471 6.51759C39.9891 6.69581 39.9845 6.88715 40.0341 7.06791C40.0837 7.24867 40.1853 7.41091 40.3262 7.53454L44.254 10.9786L43.0959 16.0794C43.0112 16.4545 43.1567 16.8423 43.4679 17.0673C43.6309 17.1858 43.8274 17.2497 44.0289 17.2495C44.2017 17.2495 44.3713 17.2026 44.5195 17.1138L49 14.4347L53.4798 17.1138C53.6405 17.21 53.8259 17.2568 54.013 17.2485C54.2001 17.2402 54.3806 17.1772 54.5322 17.0673C54.8434 16.8423 54.9889 16.4545 54.9042 16.0794L53.7461 10.9786L57.6739 7.53457C57.8148 7.41096 57.9164 7.24872 57.966 7.06795C58.0156 6.88719 58.011 6.69581 57.953 6.51759Z" fill="#EBCD32"/>
<path d="M77.953 6.51759C77.8953 6.33953 77.7865 6.18233 77.6402 6.06553C77.494 5.94873 77.3166 5.87746 77.1302 5.86058L71.9341 5.38884L69.8806 0.581143C69.729 0.227922 69.384 0 69 0C68.6161 0 68.271 0.227922 68.1203 0.581143L66.0668 5.38884L60.8699 5.86058C60.4889 5.89573 60.1663 6.15379 60.0471 6.51759C59.9891 6.69581 59.9845 6.88715 60.0341 7.06791C60.0837 7.24867 60.1853 7.41091 60.3262 7.53454L64.254 10.9786L63.0959 16.0794C63.0112 16.4545 63.1567 16.8423 63.4679 17.0673C63.6309 17.1858 63.8274 17.2497 64.0289 17.2495C64.2017 17.2495 64.3713 17.2026 64.5195 17.1138L69 14.4347L73.4798 17.1138C73.6405 17.21 73.8259 17.2568 74.013 17.2485C74.2001 17.2402 74.3806 17.1772 74.5322 17.0673C74.8434 16.8423 74.9889 16.4545 74.9042 16.0794L73.7461 10.9786L77.6739 7.53457C77.8148 7.41096 77.9164 7.24872 77.966 7.06795C78.0156 6.88719 78.011 6.69581 77.953 6.51759Z" fill="#D9D9D9"/>
<path d="M97.953 6.51759C97.8953 6.33953 97.7865 6.18233 97.6402 6.06553C97.494 5.94873 97.3166 5.87746 97.1302 5.86058L91.9341 5.38884L89.8806 0.581143C89.729 0.227922 89.384 0 89 0C88.6161 0 88.271 0.227922 88.1203 0.581143L86.0668 5.38884L80.8699 5.86058C80.4889 5.89573 80.1663 6.15379 80.0471 6.51759C79.9891 6.69581 79.9845 6.88715 80.0341 7.06791C80.0837 7.24867 80.1853 7.41091 80.3262 7.53454L84.254 10.9786L83.0959 16.0794C83.0112 16.4545 83.1567 16.8423 83.4679 17.0673C83.6309 17.1858 83.8274 17.2497 84.0289 17.2495C84.2017 17.2495 84.3713 17.2026 84.5195 17.1138L89 14.4347L93.4798 17.1138C93.6405 17.21 93.8259 17.2568 94.013 17.2485C94.2001 17.2402 94.3806 17.1772 94.5322 17.0673C94.8434 16.8423 94.9889 16.4545 94.9042 16.0794L93.7461 10.9786L97.6739 7.53457C97.8148 7.41096 97.9164 7.24872 97.966 7.06795C98.0156 6.88719 98.011 6.69581 97.953 6.51759Z" fill="#D9D9D9"/>
</g>
<defs>
<clipPath id="clip0_2159_3181">
<rect width="98.0006" height="17.2495" fill="white"/>
</clipPath>
</defs>
</svg>
