<svg width="55" height="55" viewBox="0 0 55 55" fill="none" xmlns="http://www.w3.org/2000/svg">
<path d="M39.8667 39.5635V54H1V1H29.2667V11.6H39.8667V29.5697" stroke="#AE1B24" stroke-width="2" stroke-miterlimit="10" stroke-linecap="round" stroke-linejoin="round"/>
<path d="M8.06641 25.7333H32.7997M18.6664 43.4C18.6664 43.4 20.4331 41.6333 22.1997 41.6333C25.733 41.6333 22.1997 45.1666 25.733 45.1666C29.2663 45.1666 31.033 43.5056 31.033 43.5056M8.06641 18.6667H15.133M8.06641 32.8H25.733M39.8664 11.6L29.2664 1V11.6H39.8664ZM49 20.4333C49 20.4333 39.8046 29.6359 34.5664 34.87C32.3045 37.1324 31.0336 40.2005 31.0331 43.3997V43.3999C34.2308 43.3999 37.3047 42.129 39.5661 39.8667C44.7953 34.6328 53.9997 25.4303 53.9997 25.4303V25.4295C53.9997 24.1044 53.4697 22.8336 52.5333 21.8967C52.0693 21.4327 51.5185 21.0646 50.9122 20.8135C50.306 20.5624 49.6562 20.4332 49 20.4333Z" stroke="#AE1B24" stroke-width="2" stroke-miterlimit="10" stroke-linecap="round" stroke-linejoin="round"/>
</svg>
