<svg width="59" height="59" viewBox="0 0 59 59" fill="none" xmlns="http://www.w3.org/2000/svg">
<mask id="mask0_10_7346" style="mask-type:luminance" maskUnits="userSpaceOnUse" x="0" y="0" width="59" height="59">
<path d="M57.8 57.8V1.2H1.2V57.8H57.8Z" fill="white" stroke="white" stroke-width="2.4"/>
</mask>
<g mask="url(#mask0_10_7346)">
<path d="M36.4141 17.5439V1.72849H15.6719V17.5017" stroke="#AE1B24" stroke-width="2.4" stroke-miterlimit="10" stroke-linecap="round" stroke-linejoin="round"/>
<path d="M26.043 9.28633C26.3348 9.28633 26.5715 9.04967 26.5715 8.75781C26.5715 8.46595 26.3348 8.2293 26.043 8.2293C25.7511 8.2293 25.5145 8.46595 25.5145 8.75781C25.5145 9.04967 25.7511 9.28633 26.043 9.28633Z" fill="#AE1B24" stroke="#AE1B24" stroke-width="2.4"/>
<path d="M3.07952 28.4059C2.20432 30.3717 1.72852 32.485 1.72852 34.6855C1.72852 39.9185 4.53655 44.7712 8.88987 48.2092C9.53979 53.312 13.8494 57.2715 19.1289 57.2715V53.0167C21.3953 53.547 23.7153 53.8147 26.043 53.8145C28.006 53.8145 29.8942 53.5906 31.7201 53.2434C33.6179 55.6778 36.5452 57.2715 39.8711 57.2715V50.3446C43.1259 48.5479 45.8234 46.0235 47.6318 43.2129H50.2422C54.0608 43.2129 57.2715 40.1472 57.2715 36.3287V29.5H49.3077C48.7327 27.9049 47.8379 26.4268 46.7852 25.0314V24.0178C46.7852 20.8875 48.0287 17.8854 50.2422 15.6719H48.3783C45.1432 15.6719 42.1478 16.9987 39.9775 19.2009C36.0347 17.001 31.2496 15.6719 26.043 15.6719C15.479 15.6719 6.38064 20.9906 3.07952 28.4059Z" stroke="#AE1B24" stroke-width="2.4" stroke-miterlimit="10" stroke-linecap="round" stroke-linejoin="round"/>
<path d="M39.8711 30.0285C40.163 30.0285 40.3996 29.7919 40.3996 29.5C40.3996 29.2081 40.163 28.9715 39.8711 28.9715C39.5792 28.9715 39.3426 29.2081 39.3426 29.5C39.3426 29.7919 39.5792 30.0285 39.8711 30.0285Z" fill="#AE1B24" stroke="#AE1B24" stroke-width="2.4"/>
<path d="M4.70087 25.5479C2.94401 24.7175 1.72852 22.9292 1.72852 20.857C1.72852 18.5991 3.17148 16.6784 5.18555 15.9665" stroke="#AE1B24" stroke-width="2.4" stroke-miterlimit="10" stroke-linecap="round" stroke-linejoin="round"/>
</g>
</svg>
