<svg width="58" height="58" viewBox="0 0 58 58" fill="none" xmlns="http://www.w3.org/2000/svg">
<path d="M11.9961 56.6641H55.9999" stroke="#AE1B24" stroke-width="2.4" stroke-miterlimit="10" stroke-linecap="round" stroke-linejoin="round"/>
<path d="M26.6225 34.6046C26.7264 36.6411 26.7802 38.3231 26.7809 39.3659L26.7852 43.1596M36.1736 4.91415C34.8073 3.09574 32.6107 1.93646 30.1491 2.0027C26.6391 2.09717 23.7265 4.71228 23.1933 8.11571M33.9837 43.1597L33.9794 39.4114C33.9764 34.8853 34.9653 18.3754 36.7219 12.9937M41.2726 50.3215V56.6635M22.4203 43.1597H44.6716V50.3215H21.6445" stroke="#AE1B24" stroke-width="2.4" stroke-miterlimit="10" stroke-linecap="round" stroke-linejoin="round"/>
<path d="M25.3776 28.3459H19.7335C17.8484 28.3459 16.3203 26.8178 16.3203 24.9327C16.3203 23.0476 17.8484 21.5195 19.7335 21.5195H25.3776C27.2627 21.5195 28.7907 23.0477 28.7907 24.9327C28.7909 26.8178 27.2627 28.3459 25.3776 28.3459Z" stroke="#AE1B24" stroke-width="2.4" stroke-miterlimit="10" stroke-linecap="round" stroke-linejoin="round"/>
<path d="M24.2447 21.5412H18.6007C16.7156 21.5412 15.1875 20.0131 15.1875 18.128C15.1875 16.2429 16.7156 14.7148 18.6007 14.7148H24.2447C26.1298 14.7148 27.6579 16.2429 27.6579 18.128C27.658 20.0131 26.1298 21.5412 24.2447 21.5412Z" stroke="#AE1B24" stroke-width="2.4" stroke-miterlimit="10" stroke-linecap="round" stroke-linejoin="round"/>
<path d="M21.9752 14.7365H16.3311C14.4461 14.7365 12.918 13.2084 12.918 11.3233C12.918 9.43824 14.4461 7.91016 16.3311 7.91016H21.9752C23.8603 7.91016 25.3884 9.43835 25.3884 11.3233C25.3885 13.2084 23.8603 14.7365 21.9752 14.7365Z" stroke="#AE1B24" stroke-width="2.4" stroke-miterlimit="10" stroke-linecap="round" stroke-linejoin="round"/>
<path d="M25.8511 35.0558C27.6327 34.3012 28.4651 32.2452 27.7105 30.4637C26.9559 28.6821 24.8999 27.8497 23.1183 28.6043C21.3368 29.3589 20.5043 31.4149 21.259 33.1965C22.0136 34.978 24.0696 35.8105 25.8511 35.0558Z" stroke="#AE1B24" stroke-width="2.4" stroke-miterlimit="10" stroke-linecap="round" stroke-linejoin="round"/>
<path d="M55.8908 17.0424H50.2416V10.5865C50.2416 7.45365 47.702 4.91406 44.5692 4.91406H29.6758C30.3727 9.33024 33.9322 12.7933 38.3945 13.3461L38.385 13.3442M34.0529 36.3345H34.0523L44.7789 36.3543C47.6052 36.3543 49.9302 34.2079 50.2128 31.4563H55.8833M38.3851 13.3443H42.4944" stroke="#AE1B24" stroke-width="2.4" stroke-miterlimit="10" stroke-linecap="round" stroke-linejoin="round"/>
<path d="M12.3474 56.6571C18.2283 56.464 22.8392 51.5401 22.6462 45.6592C22.4531 39.7783 17.5292 35.1674 11.6483 35.3604C5.76742 35.5535 1.15649 40.4774 1.34952 46.3583C1.54255 52.2392 6.46646 56.8501 12.3474 56.6571Z" stroke="#AE1B24" stroke-width="2.4" stroke-miterlimit="10" stroke-linecap="round" stroke-linejoin="round"/>
<path d="M14.7491 42.748L10.9836 49.2701L9.24609 46.2607" stroke="#AE1B24" stroke-width="2.4" stroke-miterlimit="10" stroke-linecap="round" stroke-linejoin="round"/>
</svg>
