<svg width="80" height="62" viewBox="0 0 80 62" fill="none" xmlns="http://www.w3.org/2000/svg">
<path fill-rule="evenodd" clip-rule="evenodd" d="M7.42773 13.671H15.5686V3.84205H63.5101V13.2116H72.7853V10.3154H66.4021V0.94585H12.6765V10.7748H7.42773V13.671ZM54.6255 8.38897H57.5704V28.6479H54.6255V12.612L52.5776 14.6658L50.6167 12.612V28.6479H47.6719V8.38897H50.6167L52.5776 10.6603L54.6255 8.38897ZM46.0019 38.8071L43.9991 36.8015V36.8011L46.0019 34.7955V32.4336H44.5526V34.4262L43.0899 35.891V32.434H41.6406V41.169H43.0899V37.712L44.5526 39.1633V41.169H46.0019V38.8071ZM34.4056 32.434H30.0313V41.169H34.4056V32.434ZM32.9433 33.7934V39.7969H31.494V33.7934H32.9433ZM28.5954 32.4341H27.1327L25.6834 33.8854L24.2208 32.4341H22.7715V41.169H24.2208V34.2551L25.6834 35.7064L27.1327 34.2551V41.169H28.5954V32.4341ZM35.8418 32.434H40.2161V34.8617H38.7534V33.793H37.3041V39.7965H38.7534V38.7542H40.2161V41.169H35.8418V32.434ZM50.8228 36.8014L51.7714 37.7513V41.1688H47.4102V32.4339H51.7714V35.838L50.8228 36.8014ZM48.8594 33.7929V36.1153H50.3221V33.7929H48.8594ZM50.3221 39.7964V37.4874H48.8594V39.7964H50.3221ZM57.568 32.4339H53.1937H53.1934V41.1688H54.656V38.1209H56.1053V41.1688H57.568V32.4339ZM56.1057 33.7929V36.7485H54.6564V33.7929H56.1057ZM25.8472 28.6479V18.5184V18.3961V11.338H32.4921V8.38897H22.9023V28.6479H25.8472ZM37.781 28.6479H34.8361V8.38897H44.581V28.6479H41.6357V11.3706H37.781V28.6479ZM15.4831 17.9335H0V20.8297H15.4831V17.9335ZM63.9336 17.9336H79.4167V20.8298H63.9336V17.9336ZM39.0775 61.5855L13.201 43.7785V28.4431H7.42773V25.5469H16.0931V42.2548L39.0934 58.0822L63.3966 41.6784V25.5469H71.6744V28.4431H66.2886V43.2188L39.0775 61.5855ZM32.4922 45.0408H35.0072V50.7463L32.4922 49.0242V45.0408ZM37.8008 45.0408H40.4102V52.2918L39.0982 53.1994L37.8008 52.365V45.0408ZM45.5623 45.0408H43.0469V50.7463L45.5623 49.0242V45.0408Z" fill="white"/>
</svg>
