<svg width="81" height="61" viewBox="0 0 81 61" fill="none" xmlns="http://www.w3.org/2000/svg">
<path fill-rule="evenodd" clip-rule="evenodd" d="M8.21875 12.7248H16.3596V2.89576H64.3011V12.2653H73.5763V9.36914H67.1932V-0.000439286H13.4675V9.82855H8.21875V12.7248ZM55.4185 7.44292H58.3633V27.7019H55.4185V11.6659L53.3705 13.7197L51.4097 11.6659V27.7019H48.4648V7.44292H51.4097L53.3705 9.71427L55.4185 7.44292ZM29.3884 31.4878H27.9257L26.4764 32.9392L25.0137 31.4878H23.5645V40.2228H25.0137V33.3088L26.4764 34.7602L27.9257 33.3088V40.2228H29.3884V31.4878ZM35.1985 31.4878H30.8242V40.2228H35.1985V31.4878ZM33.7362 32.8472V38.8507H32.2869V32.8472H33.7362ZM36.6348 31.4878H41.009V33.9156H39.5464V32.8469H38.0971V38.8504H39.5464V37.8081H41.009V40.2228H36.6348V31.4878ZM46.7948 37.8613L44.7921 35.8557V35.8553L46.7948 33.8497V31.4878H45.3456V33.4804L43.8829 34.9452V31.4882H42.4336V40.2232H43.8829V36.7662L45.3456 38.2175V40.2232H46.7948V37.8613ZM51.6158 35.8553L52.5644 36.8053V40.2228H48.2031V31.4878H52.5644V34.892L51.6158 35.8553ZM49.6524 32.8469V35.1693H51.1151V32.8469H49.6524ZM51.1151 38.8504V36.5414H49.6524V38.8504H51.1151ZM58.3629 31.4878H53.9886H53.9883V40.2228H55.451V37.1749H56.9002V40.2228H58.3629V31.4878ZM56.9006 32.8469V35.8025H55.4513V32.8469H56.9006ZM26.6402 27.7019V17.5724V17.45V10.392H33.2851V7.44292H23.6953V27.7019H26.6402ZM38.5739 27.7019H35.6291V7.44292H45.3739V27.7019H42.4287V10.4246H38.5739V27.7019ZM16.276 16.9877H0.792969V19.8839H16.276V16.9877ZM64.7266 16.9878H80.2096V19.884H64.7266V16.9878ZM39.8705 60.6397L13.994 42.8327V27.4973H8.2207V24.6011H16.8861V41.309L39.8864 57.1364L64.1895 40.7326V24.6011H72.4674V27.4973H67.0816V42.273L39.8705 60.6397ZM33.2852 44.0953H35.8002V49.8008L33.2852 48.0786V44.0953ZM38.5938 44.0953H41.2031V51.3463L39.8912 52.2539L38.5938 51.4194V44.0953ZM46.3552 44.0953H43.8398V49.8008L46.3552 48.0786V44.0953Z" fill="#AE1B24"/>
</svg>
