<svg width="18" height="18" viewBox="0 0 18 18" fill="none" xmlns="http://www.w3.org/2000/svg">
<g clip-path="url(#clip0_44_10072)">
<path d="M17.953 6.55226C17.8953 6.3742 17.7865 6.217 17.6402 6.1002C17.494 5.9834 17.3166 5.91213 17.1302 5.89525L11.9341 5.42351L9.88062 0.615811C9.72899 0.26259 9.38403 0.034668 9.00005 0.034668C8.61607 0.034668 8.27097 0.26259 8.12032 0.615811L6.06681 5.42351L0.869917 5.89525C0.488922 5.9304 0.166323 6.18846 0.0471408 6.55226C-0.0109336 6.73048 -0.015451 6.92182 0.0341482 7.10258C0.0837473 7.28334 0.185284 7.44558 0.326181 7.56921L4.25401 11.0133L3.09591 16.1141C3.01118 16.4892 3.15673 16.877 3.46794 17.102C3.63094 17.2205 3.82736 17.2844 4.02894 17.2842C4.20172 17.2842 4.37127 17.2373 4.51948 17.1485L9.00005 14.4694L13.4798 17.1485C13.6405 17.2447 13.8259 17.2915 14.013 17.2832C14.2001 17.2749 14.3806 17.2119 14.5322 17.102C14.8434 16.877 14.9889 16.4892 14.9042 16.1141L13.7461 11.0133L17.6739 7.56924C17.8148 7.44563 17.9164 7.28339 17.966 7.10262C18.0156 6.92186 18.011 6.73051 17.953 6.55229V6.55226Z" fill="#EBCD32"/>
</g>
<defs>
<clipPath id="clip0_44_10072">
<rect width="18" height="18" fill="white"/>
</clipPath>
</defs>
</svg>
