<svg width="38" height="38" viewBox="0 0 38 38" fill="none" xmlns="http://www.w3.org/2000/svg">
<path fill-rule="evenodd" clip-rule="evenodd" d="M32.0982 5.96322C28.6262 2.48562 24.0006 0.570419 19.0782 0.564819C8.93659 0.564819 0.67659 8.81922 0.67659 18.9664C0.67659 22.2088 1.52219 25.3784 3.13499 28.1672L0.525391 37.704L10.2806 35.1448C12.9686 36.612 15.9926 37.3848 19.0726 37.3848H19.0782C29.2198 37.3848 37.4742 29.1304 37.4798 18.9832C37.4854 14.0664 35.5758 9.44082 32.0982 5.96322ZM19.0838 34.2768H19.0782C16.3342 34.2768 13.6406 33.5376 11.2942 32.1432L10.7342 31.8128L4.94379 33.3304L6.48939 27.6856L6.12539 27.1088C4.59659 24.6728 3.78459 21.8616 3.78459 18.9664C3.79019 10.5328 10.6502 3.67282 19.0894 3.67282C23.1774 3.67282 27.0134 5.26882 29.903 8.15842C32.7926 11.048 34.383 14.8952 34.3774 18.9776C34.3774 27.4168 27.5118 34.2768 19.0838 34.2768ZM27.4726 22.8192C27.0134 22.5896 24.751 21.4752 24.331 21.324C23.911 21.1728 23.603 21.0944 23.295 21.5536C22.987 22.0128 22.1078 23.0488 21.839 23.3568C21.5702 23.6648 21.3014 23.704 20.8422 23.4744C20.383 23.2448 18.899 22.7576 17.1462 21.1896C15.7798 19.9688 14.8558 18.4624 14.587 18.0032C14.3182 17.544 14.559 17.292 14.7886 17.0624C14.9958 16.8552 15.2478 16.5248 15.4774 16.256C15.707 15.9872 15.7854 15.7968 15.9366 15.4888C16.0878 15.1808 16.015 14.912 15.8974 14.6824C15.7798 14.4528 14.8614 12.1904 14.4806 11.2664C14.1054 10.3704 13.7302 10.4936 13.4446 10.4768C13.1758 10.4656 12.8678 10.46 12.5654 10.46C12.2574 10.46 11.759 10.5776 11.339 11.0368C10.919 11.496 9.73179 12.6104 9.73179 14.8728C9.73179 17.1352 11.3782 19.3248 11.6078 19.6272C11.8374 19.9352 14.8502 24.5776 19.4646 26.5712C20.5622 27.0472 21.419 27.3272 22.0854 27.54C23.1886 27.8928 24.191 27.8424 24.9806 27.7248C25.8654 27.5904 27.7022 26.6104 28.083 25.5408C28.4638 24.4656 28.4638 23.5472 28.3518 23.3568C28.2398 23.1664 27.9318 23.0544 27.4726 22.8192Z" fill="white"/>
</svg>
