<svg width="256" height="256" viewBox="0 0 256 256" fill="none" xmlns="http://www.w3.org/2000/svg">
<rect width="256" height="256" fill="#AE1B24"/>
<path fill-rule="evenodd" clip-rule="evenodd" d="M32.8365 76.4152H56.7725V47.5155H197.732V75.0644H225.004V66.5488H206.236V39H48.2691V67.8996H32.8365V76.4152ZM86.9949 120.451V90.6682V90.3084V69.5561H106.533V60.8851H78.3363V120.451H86.9949ZM171.609 60.8851H180.268V120.451H171.609V73.3018L165.588 79.3404L159.822 73.3018V120.451H151.164V60.8851H159.822L165.588 67.5634L171.609 60.8851ZM146.254 150.321L140.366 144.424V144.423L146.254 138.526V131.582H141.993V137.441L137.692 141.747V131.583H133.431V157.266H137.692V147.102L141.993 151.369V157.266H146.254V150.321ZM112.162 131.583H99.3003V157.266H112.162V131.583ZM107.862 135.58V153.232H103.601V135.58H107.862ZM95.0785 131.583H90.7779L86.5166 135.85L82.216 131.583H77.9547V157.266H82.216V136.937L86.5166 141.205L90.7779 136.937V157.266H95.0785V131.583ZM116.385 131.583H129.246V138.721H124.945V135.579H120.684V153.231H124.945V150.166H129.246V157.266H116.385V131.583ZM160.434 144.424L163.223 147.218V157.266H150.4V131.583H163.223V141.592L160.434 144.424ZM154.661 135.579V142.407H158.961V135.579H154.661ZM158.961 153.231V146.442H154.661V153.231H158.961ZM180.268 131.583H167.406H167.405V157.266H171.706V148.304H175.967V157.266H180.268V131.583ZM175.968 135.579V144.269H171.707V135.579H175.968ZM122.083 120.451H113.424V60.8851H142.077V120.451H133.417V69.6519H122.083V120.451ZM56.524 88.9481H11V97.4636H56.524V88.9481ZM198.976 88.9481H244.5V97.4636H198.976V88.9481ZM125.894 217.296L49.8114 164.939V119.849H32.8365V111.334H58.3148V160.459L125.941 206.995L197.398 158.764V111.334H221.737V119.849H205.902V163.293L125.894 217.296ZM106.532 168.65H113.927V185.426L106.532 180.362V168.65ZM122.143 168.65H129.816V189.97L125.958 192.638L122.143 190.185V168.65ZM144.962 168.65H137.566V185.426L144.962 180.362V168.65Z" fill="white"/>
</svg>
