<svg width="53" height="42" viewBox="0 0 53 42"  xmlns="http://www.w3.org/2000/svg">
<path d="M32.8545 27.3545V36.8857H13.791C13.791 35.1318 12.3682 33.709 10.6143 33.709C8.8593 33.709 7.43652 35.1318 7.43652 36.8857H1.08203V33.5076C1.08203 30.1094 3.83687 27.3545 7.23508 27.3545H32.8545Z"  stroke-width="2" stroke-miterlimit="10" stroke-linecap="round" stroke-linejoin="round"/>
<path d="M51.9189 24.1768V36.8857H45.5645C45.5645 35.1318 44.1417 33.709 42.3867 33.709C40.6327 33.709 39.21 35.1318 39.21 36.8857H32.8555V11.4678H45.5645L51.9189 24.1768Z"  stroke-width="2" stroke-miterlimit="10" stroke-linecap="round" stroke-linejoin="round"/>
<path d="M13.792 36.8857C13.792 38.6407 12.3692 40.0635 10.6153 40.0635C8.86027 40.0635 7.4375 38.6407 7.4375 36.8857C7.4375 35.1318 8.86027 33.709 10.6153 33.709C12.3692 33.709 13.792 35.1318 13.792 36.8857Z"  stroke-width="2" stroke-miterlimit="10" stroke-linecap="round" stroke-linejoin="round"/>
<path d="M45.5635 36.8857C45.5635 38.6407 44.1407 40.0635 42.3857 40.0635C40.6318 40.0635 39.209 38.6407 39.209 36.8857C39.209 35.1318 40.6318 33.709 42.3857 33.709C44.1407 33.709 45.5635 35.1318 45.5635 36.8857Z"  stroke-width="2" stroke-miterlimit="10" stroke-linecap="round" stroke-linejoin="round"/>
<path d="M39.209 11.4683V19.6157C39.209 22.1349 41.2513 24.1772 43.7705 24.1772H51.918"  stroke-width="2" stroke-miterlimit="10" stroke-linejoin="round"/>
<path d="M4.25977 1.93653L23.3232 27.3545H32.855L13.7915 1.93653H4.25977Z"  stroke-width="2" stroke-miterlimit="10" stroke-linejoin="round"/>
<path d="M7.43652 17.8228C7.43652 19.5775 6.01407 21 4.25928 21C2.50449 21 1.08203 19.5775 1.08203 17.8228C1.08203 16.068 2.50449 14.6455 4.25928 14.6455V1.93652"  stroke-width="2" stroke-miterlimit="10" stroke-linecap="round" stroke-linejoin="round"/>
</svg>
