<svg width="65" height="41" viewBox="0 0 65 41"  xmlns="http://www.w3.org/2000/svg">
<path d="M1 0.999906H45.2V24.3999H1V0.999906Z"  stroke-width="2" stroke-miterlimit="10" stroke-linecap="round" stroke-linejoin="round"/>
<path d="M13.9992 36.1C13.9992 38.2538 12.2531 40 10.0992 40C7.94538 40 6.19922 38.2538 6.19922 36.1C6.19922 33.9462 7.94538 32.2 10.0992 32.2C12.2531 32.2 13.9992 33.9462 13.9992 36.1Z"  stroke-width="2" stroke-miterlimit="10" stroke-linecap="round" stroke-linejoin="round"/>
<path d="M21.8 36.1C21.8 38.2538 20.0538 40 17.9 40C15.7462 40 14 38.2538 14 36.1C14 33.9462 15.7462 32.2 17.9 32.2C20.0538 32.2 21.8 33.9462 21.8 36.1Z"  stroke-width="2" stroke-miterlimit="10" stroke-linecap="round" stroke-linejoin="round"/>
<path d="M58.4602 36.1C58.4602 38.2538 56.714 40 54.5602 40C52.4063 40 50.6602 38.2538 50.6602 36.1C50.6602 33.9462 52.4063 32.2 54.5602 32.2C56.714 32.2 58.4602 33.9462 58.4602 36.1Z"  stroke-width="2" stroke-miterlimit="10" stroke-linecap="round" stroke-linejoin="round"/>
<path d="M21.8 36.1001H45.2V24.4001H1V36.1001H6.2"  stroke-width="2" stroke-miterlimit="10" stroke-linecap="round" stroke-linejoin="round"/>
<path d="M63.6598 24.3999H53.2598V12.6999"  stroke-width="2" stroke-miterlimit="10" stroke-linecap="round" stroke-linejoin="round"/>
<path d="M58.4592 36.1001H63.6592V24.4001L59.7592 12.7001H45.1992V36.1001H50.6592"  stroke-width="2" stroke-miterlimit="10" stroke-linecap="round" stroke-linejoin="round"/>
<path d="M9.83984 7.50039V17.9004"  stroke-width="2" stroke-miterlimit="10" stroke-linecap="round" stroke-linejoin="round"/>
<path d="M18.6797 7.50039V17.9004"  stroke-width="2" stroke-miterlimit="10" stroke-linecap="round" stroke-linejoin="round"/>
<path d="M36.3594 7.50039V17.9004"  stroke-width="2" stroke-miterlimit="10" stroke-linecap="round" stroke-linejoin="round"/>
<path d="M27.5195 7.50039V17.9004"  stroke-width="2" stroke-miterlimit="10" stroke-linecap="round" stroke-linejoin="round"/>
</svg>
