<svg width="37" height="50" viewBox="0 0 37 50" xmlns="http://www.w3.org/2000/svg">
<path d="M10.7446 38.7603V13.4225M4.82918 13.4225V38.7603M6.02814 30.8732L33.0421 30.8731M3.56524 46.3519V48.5209M33.4348 46.3519V48.5209M24.3661 2.42957H3.76055C2.24225 2.42957 1 3.67182 1 5.19012V10.1197C1 11.638 2.24215 12.8802 3.76055 12.8802H24.3661M6.91556 7.67954V7.63024M12.8309 7.67954V7.63024M28.7358 20.6197V24.7604M4.94364 39.0477H32.0564C34.2284 39.0477 36 40.8196 36 42.9914V46.1547H1V42.9913C1 40.8192 2.77158 39.0477 4.94364 39.0477ZM25.0721 14.3098H32.3678V17.5631L29.7057 20.2253H27.7343L25.0721 17.5631V14.3098ZM24.3978 1H33.0421V14.3098H24.3978V1Z"  stroke-width="2" stroke-miterlimit="22.9256" stroke-linecap="round" stroke-linejoin="round"/>
</svg>
